<svg width="1141" height="1144" viewBox="0 0 1141 1144" fill="none" xmlns="http://www.w3.org/2000/svg">
<g opacity="0.5" filter="url(#filter0_f_1232_451)">
<path d="M581.584 212.571V463.178L512.821 419.218L469.438 391.465L581.584 212.571Z" fill="#E8CCC2"/>
<path d="M581.585 463.178L341.714 595.213L469.439 391.465L512.822 419.219L581.585 463.178Z" fill="#8EA8EA"/>
<path d="M656.901 734.911L519.943 934.102L522.522 652.842L656.901 734.911Z" fill="#E8CCC2"/>
<path d="M794.786 483.527L528.968 598.63L581.688 463.178L794.786 483.527Z" fill="#C6F9F5"/>
<path d="M793.704 527.849L656.9 734.911L522.521 652.842L793.704 527.849Z" fill="#C4B3F0"/>
<path d="M581.534 463.23L528.968 598.63L341.714 595.213L581.534 463.23Z" fill="#C6B4F0"/>
<path d="M531.753 599.717L526.233 597.594L579.52 460.278L581.584 460.226L585.917 460.848L584.421 464.265L531.753 599.717Z" fill="#3741B9"/>
<path d="M801.903 520.808L526.851 647.613L519.629 650.927V657.347H519.578L516.947 943.733L657.826 738.846L659.373 736.516L661.127 733.979L801.955 520.756L801.903 520.808ZM522.982 924.472L525.458 658.072L652.719 735.791L522.982 924.472ZM656.02 730.924L528.811 653.257L785.499 534.891L656.02 730.924Z" fill="#3741B9"/>
<path d="M590.199 461.003L587.723 460.744L586.897 460.641L584.524 460.434V460.175V202.267L339.598 592.934L336.4 598.009L346.562 598.216L524.686 601.53L529.535 601.633L531.237 600.908L533.094 600.08L534.229 599.562L806.444 481.663L590.147 461.003H590.199ZM578.592 222.823V457.793L473.462 390.585L578.592 222.823ZM470.315 395.555L575.755 462.971L350.276 587.083L470.315 395.555ZM526.955 595.627L352.856 592.417L575.806 469.754L526.955 595.627ZM565.128 513.921L583.647 466.336L783.075 485.391L534.332 593.09L565.128 513.869V513.921Z" fill="#3741B9"/>
<path d="M674.189 227.492L609.56 469.56L554.477 409.236L519.729 371.16L674.189 227.492Z" fill="#E8CCC2"/>
<path d="M609.56 469.56L343.813 534.788L519.73 371.16L554.477 409.236L609.56 469.56Z" fill="#8EA8EA"/>
<path d="M612.23 751.597L428.57 908.426L503.594 637.419L612.23 751.597Z" fill="#E8CCC2"/>
<path d="M810.251 544.596L523.806 586.729L609.661 469.587L810.251 544.596Z" fill="#C6F9F5"/>
<path d="M797.773 587.127L612.232 751.597L503.596 637.419L797.773 587.127Z" fill="#C4B3F0"/>
<path d="M609.494 469.596L523.802 586.729L343.809 534.788L609.494 469.596Z" fill="#C6B4F0"/>
<path d="M526.215 588.502L521.43 585.018L608.314 466.222L610.321 466.708L614.346 468.434L612.02 471.347L526.215 588.502Z" fill="#3741B9"/>
<path d="M807.509 582.455L509.128 633.493L501.297 634.818L499.642 641.02L499.592 641.006L423.195 916.951L612.112 755.639L614.207 753.79L616.556 751.795L807.572 582.418L807.509 582.455ZM433.993 899.913L505.085 643.234L607.967 751.362L433.993 899.913ZM612.411 747.518L509.566 639.454L788.032 591.797L612.411 747.518Z" fill="#3741B9"/>
<path d="M618.441 469.697L616.116 468.803L615.346 468.489L613.107 467.673L613.174 467.423L679.685 218.302L342.356 532.038L337.958 536.109L347.721 538.948L518.92 588.418L523.577 589.777L525.409 589.519L527.416 589.201L528.646 588.996L821.99 545.823L618.391 469.683L618.441 469.697ZM668.654 236.617L608.058 463.581L523.842 371.355L668.654 236.617ZM519.52 375.339L603.982 467.845L354.179 529.16L519.52 375.339ZM522.635 583.306L355.295 534.981L602.283 474.411L522.635 583.306ZM580.578 514.299L610.738 473.146L798.457 543.354L530.415 582.771L580.592 514.249L580.578 514.299Z" fill="#3741B9"/>
<path d="M759.79 265.958L634.937 482.99L597.288 410.414L573.543 364.609L759.79 265.958Z" fill="#E8CCC2"/>
<path d="M634.934 482.99L361.42 476.967L573.54 364.609L597.284 410.414L634.934 482.99Z" fill="#8EA8EA"/>
<path d="M564.785 756.112L346.938 859.89L489.296 617.606L564.785 756.112Z" fill="#E8CCC2"/>
<path d="M809.436 607.6L521.886 573.893L635.025 483.043L809.436 607.6Z" fill="#C6F9F5"/>
<path d="M786.416 645.44L564.783 756.112L489.293 617.606L786.416 645.44Z" fill="#C4B3F0"/>
<path d="M634.864 483.01L521.885 573.893L361.42 476.968L634.864 483.01Z" fill="#C6B4F0"/>
<path d="M523.756 576.231L520.034 571.623L634.593 479.444L636.405 480.434L639.849 483.147L636.85 485.356L523.756 576.231Z" fill="#3741B9"/>
<path d="M797.028 643.457L495.652 615.251L487.747 614.497L484.548 620.057L484.503 620.031L339.548 866.729L563.627 759.985L566.128 758.744L568.911 757.427L797.099 643.438L797.028 643.457ZM354.371 853.076L489.235 623.61L560.726 754.777L354.371 853.076ZM566.01 752.219L494.538 621.122L775.806 647.422L566.01 752.219Z" fill="#3741B9"/>
<path d="M643.48 485.43L641.465 483.964L640.802 483.46L638.85 482.09L638.979 481.865L767.468 258.511L360.726 473.933L355.428 476.723L364.125 482.002L516.734 574.255L520.882 576.778L522.717 577.004L524.738 577.219L525.979 577.34L820.461 611.835L643.435 485.404L643.48 485.43ZM752.09 273.336L635.028 476.826L577.465 365.867L752.09 273.336ZM572.264 368.592L629.991 479.886L372.888 474.224L572.264 368.592ZM521.64 570.282L372.465 480.137L626.657 485.786L521.64 570.282ZM595.405 518.678L635.15 486.761L798.366 603.337L529.293 571.786L595.431 518.633L595.405 518.678Z" fill="#3741B9"/>
<path d="M832.552 325.349L655.984 502.555L638.333 422.672L627.211 372.261L832.552 325.349Z" fill="#E8CCC2"/>
<path d="M655.982 502.555L393.341 425.691L627.209 372.26L638.332 422.672L655.982 502.555Z" fill="#8EA8EA"/>
<path d="M517.786 748.148L280.599 791.803L480.588 594.753L517.786 748.148Z" fill="#E8CCC2"/>
<path d="M792.403 668.246L523.343 560.996L656.056 502.63L792.403 668.246Z" fill="#C6F9F5"/>
<path d="M760.411 698.818L517.789 748.148L480.591 594.753L760.411 698.818Z" fill="#C4B3F0"/>
<path d="M655.911 502.555L523.344 560.994L393.343 425.691L655.911 502.555Z" fill="#C6B4F0"/>
<path d="M524.545 563.74L522.138 558.321L656.566 499.04L658.061 500.468L660.688 503.982L657.222 505.337L524.545 563.74Z" fill="#3741B9"/>
<path d="M771.169 699.658L487.336 594.129L479.895 591.347L475.371 595.887L475.335 595.851L271.698 796.489L515.67 751.589L518.406 751.039L521.434 750.49L771.242 699.658L771.169 699.658ZM289.537 787.152L478.982 600.536L514.211 745.804L289.537 787.152ZM519.975 744.706L484.746 599.511L749.647 697.975L519.975 744.706Z" fill="#3741B9"/>
<path d="M663.607 507.131L662.039 505.191L661.528 504.532L659.996 502.702L660.178 502.519L841.89 320.15L393.452 422.579L387.616 423.898L394.655 431.256L518.273 560.007L521.629 563.521L523.343 564.216L525.24 564.948L526.407 565.388L801.959 675.201L663.571 507.095L663.607 507.131ZM823.213 330.476L657.662 496.625L630.676 374.494L823.213 330.476ZM624.948 375.776L652.008 498.273L405.125 426.02L624.948 375.776ZM524.037 557.443L403.191 431.621L647.265 503.105L524.037 557.443ZM608.596 526.758L655.217 506.253L782.809 661.253L531.04 560.884L608.633 526.722L608.596 526.758Z" fill="#3741B9"/>
<path d="M759.789 265.958L634.936 482.99L597.287 410.414L573.542 364.609L759.789 265.958Z" fill="#E8CCC2"/>
<path d="M634.934 482.99L361.42 476.967L573.54 364.609L597.284 410.414L634.934 482.99Z" fill="#8EA8EA"/>
<path d="M564.784 756.112L346.937 859.89L489.295 617.606L564.784 756.112Z" fill="#E8CCC2"/>
<path d="M809.434 607.6L521.884 573.893L635.024 483.043L809.434 607.6Z" fill="#C6F9F5"/>
<path d="M786.415 645.44L564.782 756.112L489.293 617.606L786.415 645.44Z" fill="#C4B3F0"/>
<path d="M634.864 483.009L521.885 573.892L361.42 476.967L634.864 483.009Z" fill="#C6B4F0"/>
<path d="M523.755 576.231L520.033 571.623L634.592 479.444L636.404 480.434L639.848 483.147L636.849 485.356L523.755 576.231Z" fill="#3741B9"/>
<path d="M797.026 643.457L495.65 615.251L487.745 614.497L484.546 620.057L484.502 620.031L339.546 866.729L563.625 759.985L566.126 758.744L568.909 757.427L797.097 643.438L797.026 643.457ZM354.369 853.076L489.233 623.61L560.724 754.777L354.369 853.076ZM566.008 752.219L494.536 621.122L775.804 647.422L566.008 752.219Z" fill="#3741B9"/>
<path d="M643.478 485.43L641.463 483.964L640.8 483.46L638.848 482.09L638.977 481.865L767.467 258.51L360.724 473.933L355.426 476.723L364.124 482.001L516.732 574.255L520.88 576.778L522.715 577.004L524.736 577.219L525.977 577.34L820.459 611.835L643.434 485.404L643.478 485.43ZM752.088 273.336L635.026 476.826L577.463 365.867L752.088 273.336ZM572.262 368.592L629.989 479.886L372.886 474.224L572.262 368.592ZM521.638 570.282L372.463 480.137L626.655 485.786L521.638 570.282ZM595.403 518.678L635.148 486.761L798.365 603.337L529.291 571.786L595.429 518.633L595.403 518.678Z" fill="#3741B9"/>
<path d="M887.517 401.617L671.266 526.92L674.818 445.175L677.075 393.592L887.517 401.617Z" fill="#E8CCC2"/>
<path d="M671.266 526.92L437.397 384.453L677.075 393.592L674.818 445.175L671.266 526.92Z" fill="#8EA8EA"/>
<path d="M474.444 728.248L234.081 708.806L478.072 570.417L474.444 728.248Z" fill="#E8CCC2"/>
<path d="M760.307 722.402L528.075 548.917L671.318 527.012L760.307 722.402Z" fill="#C6F9F5"/>
<path d="M721.522 743.621L474.445 728.248L478.073 570.417L721.522 743.621Z" fill="#C4B3F0"/>
<path d="M671.194 526.902L528.074 548.915L437.395 384.453L671.194 526.902Z" fill="#C6B4F0"/>
<path d="M528.53 551.88L527.602 546.021L672.737 523.678L673.814 525.445L675.444 529.522L671.747 529.93L528.53 551.88Z" fill="#3741B9"/>
<path d="M731.699 747.227L484.751 571.567L478.281 566.947L472.741 570.158L472.715 570.113L224.275 711.019L471.513 731.021L474.297 731.201L477.363 731.457L731.769 747.246L731.699 747.227ZM243.913 706.634L475.03 575.586L471.595 725.055L243.913 706.634ZM477.446 725.491L480.861 576.093L711.344 740.012L477.446 725.491Z" fill="#3741B9"/>
<path d="M677.453 533.321L676.438 531.04L676.115 530.271L675.107 528.105L675.33 527.975L897.881 399.021L438.308 381.476L432.33 381.234L437.232 390.17L523.435 546.644L525.77 550.91L527.246 552.027L528.89 553.227L529.904 553.954L767.748 731.601L677.427 533.277L677.453 533.321ZM877.177 404.143L674.419 521.628L679.849 396.65L877.177 404.143ZM673.986 396.4L668.533 521.751L448.696 387.832L673.986 396.4ZM529.663 545.665L445.383 392.74L662.705 525.188L529.663 545.665ZM619.254 537.99L669.575 530.294L752.847 713.155L535.541 550.808L619.299 537.964L619.254 537.99Z" fill="#3741B9"/>
<path d="M920.945 489.565L679.748 554.427L704.26 476.39L719.743 427.15L920.945 489.565Z" fill="#E8CCC2"/>
<path d="M679.751 554.428L490.591 356.066L719.746 427.151L704.263 476.39L679.751 554.428Z" fill="#8EA8EA"/>
<path d="M437.712 697.769L210.553 616.554L481.919 546.259L437.712 697.769Z" fill="#E8CCC2"/>
<path d="M715.343 766.377L535.764 538.479L679.774 554.529L715.343 766.377Z" fill="#C6F9F5"/>
<path d="M672.409 776.797L437.715 697.769L481.922 546.259L672.409 776.797Z" fill="#C4B3F0"/>
<path d="M679.687 554.391L535.767 538.478L490.591 356.066L679.687 554.391Z" fill="#C6B4F0"/>
<path d="M535.438 541.46L536.053 535.559L682.004 551.677L682.588 553.664L683.112 558.025L679.435 557.46L535.438 541.46Z" fill="#3741B9"/>
<path d="M681.306 782.924L488.074 549.104L483.016 542.961L476.836 544.623L476.823 544.572L200.51 616.144L434.165 699.686L436.808 700.583L439.704 701.627L681.369 782.961L681.306 782.924ZM220.61 617.01L477.647 550.461L435.784 693.945L220.61 617.01ZM441.323 695.885L483.15 552.465L663.506 770.667L441.323 695.885Z" fill="#3741B9"/>
<path d="M684.07 562.216L683.679 559.749L683.565 558.922L683.15 556.568L683.399 556.501L931.622 489.749L492.233 353.426L486.522 351.639L488.952 361.544L531.865 535.077L533.02 539.805L534.158 541.268L535.436 542.853L536.228 543.82L720.155 777.194L684.057 562.166L684.07 562.216ZM910.303 489.319L684.156 550.133L721.631 430.823L910.303 489.319ZM716.032 429.06L678.438 548.723L500.628 362.263L716.032 429.06ZM538.133 535.75L496.163 366.144L671.923 550.529L538.133 535.75ZM626.651 551.608L677.242 557.245L710.519 755.506L542.484 542.244L626.701 551.595L626.651 551.608Z" fill="#3741B9"/>
<path d="M930.553 583.199L680.848 583.199L724.65 514.187L752.303 470.647L930.553 583.199Z" fill="#E8CCC2"/>
<path d="M680.849 583.198L549.29 342.46L752.304 470.647L724.651 514.187L680.849 583.198Z" fill="#8EA8EA"/>
<path d="M410.094 658.786L211.62 521.332L491.868 523.921L410.094 658.786Z" fill="#E8CCC2"/>
<path d="M660.573 797.172L545.885 530.393L680.849 583.304L660.573 797.172Z" fill="#C6F9F5"/>
<path d="M616.41 796.084L410.093 658.786L491.867 523.921L616.41 796.084Z" fill="#C4B3F0"/>
<path d="M680.794 583.146L545.881 530.391L549.287 342.46L680.794 583.146Z" fill="#C6B4F0"/>
<path d="M544.802 533.187L546.917 527.647L683.739 581.127L683.791 583.198L683.171 587.547L679.766 586.046L544.802 533.187Z" fill="#3741B9"/>
<path d="M623.425 804.314L497.077 528.268L493.775 521.02L487.377 521.02L487.377 520.969L202.022 518.328L406.172 659.716L408.493 661.27L411.021 663.03L623.477 804.366L623.425 804.314ZM221.215 524.386L486.655 526.871L409.216 654.591L221.215 524.386ZM414.065 657.904L491.453 530.236L609.392 787.851L414.065 657.904Z" fill="#3741B9"/>
<path d="M683.013 591.845L683.271 589.36L683.374 588.531L683.58 586.15L683.838 586.15L940.818 586.15L551.557 340.339L546.501 337.129L546.294 347.328L542.992 526.095L542.889 530.961L543.611 532.67L544.437 534.534L544.953 535.673L662.428 808.871L683.013 591.793L683.013 591.845ZM920.336 580.196L686.212 580.196L753.178 474.686L920.336 580.196ZM748.225 471.528L681.052 577.349L557.386 351.055L748.225 471.528ZM548.874 528.373L552.073 353.644L674.294 577.401L548.874 528.373ZM630.286 566.684L677.699 585.27L658.713 785.419L551.402 535.776L630.337 566.684L630.286 566.684Z" fill="#3741B9"/>
<path d="M915.688 676.136L674.491 611.274L734.598 555.992L772.537 521.119L915.688 676.136Z" fill="#E8CCC2"/>
<path d="M674.491 611.274L609.497 344.567L772.537 521.119L734.597 555.992L674.491 611.274Z" fill="#8EA8EA"/>
<path d="M393.468 613.957L237.205 429.633L507.235 504.929L393.468 613.957Z" fill="#E8CCC2"/>
<path d="M599.724 812.69L557.742 525.211L674.463 611.376L599.724 812.69Z" fill="#C6F9F5"/>
<path d="M557.345 800.168L393.467 613.957L507.233 504.929L557.345 800.168Z" fill="#C4B3F0"/>
<path d="M674.452 611.211L557.741 525.21L609.495 344.567L674.452 611.211Z" fill="#C6B4F0"/>
<path d="M555.977 527.628L559.449 522.827L677.817 610.025L677.333 612.038L675.613 616.078L672.711 613.744L555.977 527.628Z" fill="#3741B9"/>
<path d="M562.001 809.941L511.146 510.481L509.826 502.623L503.647 500.961L503.66 500.911L228.709 424.238L389.44 613.837L391.282 615.941L393.27 618.297L562.038 810.004L562.001 809.941ZM245.685 435.074L501.441 506.424L393.702 609.677L245.685 435.074ZM397.532 614.137L505.207 510.921L552.692 790.393L397.532 614.137Z" fill="#3741B9"/>
<path d="M674.354 620.189L675.244 617.856L675.557 617.083L676.37 614.836L676.62 614.903L924.843 681.655L612.237 343.107L608.181 338.693L605.351 348.491L556.06 520.309L554.706 524.983L554.963 526.821L555.279 528.835L555.484 530.07L598.502 824.474L674.367 620.139L674.354 620.189ZM906.594 670.583L680.447 609.769L772.342 525.248L906.594 670.583ZM768.372 520.911L676.198 605.678L615.104 354.973L768.372 520.911ZM561.154 524.037L609.304 356.093L669.657 603.973L561.154 524.037ZM629.912 582.19L670.916 612.458L600.962 800.855L561.686 531.845L629.962 582.203L629.912 582.19Z" fill="#3741B9"/>
<path d="M877.357 762.047L661.106 636.744L733.421 598.958L779.061 575.128L877.357 762.047Z" fill="#E8CCC2"/>
<path d="M661.106 636.744L667.108 362.241L779.061 575.128L733.421 598.958L661.106 636.744Z" fill="#8EA8EA"/>
<path d="M388.968 566.337L285.564 347.704L526.976 490.576L388.968 566.337Z" fill="#E8CCC2"/>
<path d="M536.944 811.876L570.53 523.287L661.053 636.835L536.944 811.876Z" fill="#C6F9F5"/>
<path d="M499.239 788.773L388.966 566.338L526.973 490.576L499.239 788.773Z" fill="#C4B3F0"/>
<path d="M661.085 636.672L570.53 523.285L667.105 362.241L661.085 636.672Z" fill="#C6B4F0"/>
<path d="M568.2 525.163L572.792 521.427L664.639 636.4L663.652 638.219L660.949 641.675L658.749 638.666L568.2 525.163Z" fill="#3741B9"/>
<path d="M501.216 799.421L529.321 496.955L530.072 489.021L524.532 485.811L524.558 485.766L278.748 340.287L385.107 565.176L386.344 567.686L387.657 570.479L501.235 799.491L501.216 799.421ZM292.352 355.163L520.992 490.515L390.297 562.264L292.352 355.163ZM392.846 567.568L523.471 495.837L497.265 778.121L392.846 567.568Z" fill="#3741B9"/>
<path d="M658.673 645.319L660.135 643.296L660.637 642.63L662.002 640.671L662.225 640.801L884.776 769.755L670.129 361.542L667.35 356.225L662.09 364.954L570.169 518.114L567.655 522.277L567.429 524.119L567.215 526.147L567.095 527.393L532.724 822.939L658.699 645.274L658.673 645.319ZM870.004 754.321L667.247 636.836L777.807 579.065L870.004 754.321ZM775.091 573.845L664.197 631.781L669.839 373.749L775.091 573.845ZM574.127 523.038L663.947 373.324L658.319 628.434L574.127 523.038ZM625.546 597.07L657.347 636.958L541.191 800.764L572.628 530.718L625.59 597.096L625.546 597.07Z" fill="#3741B9"/>
<path d="M818.18 835.074L641.612 657.868L721.207 640.154L771.437 628.991L818.18 835.074Z" fill="#E8CCC2"/>
<path d="M641.61 657.867L718.198 394.277L771.435 628.99L721.205 640.152L641.61 657.867Z" fill="#8EA8EA"/>
<path d="M396.9 519.171L353.402 281.127L549.743 481.838L396.9 519.171Z" fill="#E8CCC2"/>
<path d="M476.515 794.78L583.38 524.749L641.535 657.941L476.515 794.78Z" fill="#C6F9F5"/>
<path d="M446.053 762.67L396.9 519.171L549.743 481.839L446.053 762.67Z" fill="#C4B3F0"/>
<path d="M641.607 657.793L583.379 524.747L718.195 394.277L641.607 657.793Z" fill="#C6B4F0"/>
<path d="M580.643 525.955L586.042 523.539L645.109 658.453L643.687 659.954L640.185 662.589L638.835 659.111L580.643 525.955Z" fill="#3741B9"/>
<path d="M445.217 773.469L550.366 488.611L553.138 481.142L548.614 476.602L548.65 476.566L348.734 272.193L393.473 517.047L394.02 519.792L394.568 522.831L445.217 773.543L445.217 773.469ZM358.037 290.096L543.981 480.227L399.237 515.583L358.037 290.096ZM400.331 521.367L545.003 486.011L446.893 751.869L400.331 521.367Z" fill="#3741B9"/>
<path d="M637.05 665.519L638.983 663.945L639.639 663.432L641.463 661.895L641.646 662.078L823.358 844.447L721.297 394.388L719.984 388.53L712.652 395.595L584.365 519.66L580.863 523.028L580.17 524.748L579.441 526.652L579.003 527.823L469.586 804.371L637.086 665.482L637.05 665.519ZM813.069 825.701L647.519 659.552L769.209 632.469L813.069 825.701ZM767.932 626.721L645.877 653.877L717.869 406.103L767.932 626.721ZM586.919 525.444L712.288 404.162L641.061 649.118L586.919 525.444ZM617.493 610.309L637.925 657.099L483.483 785.152L583.49 532.473L617.53 610.346L617.493 610.309Z" fill="#3741B9"/>
<path d="M742.185 890.24L617.332 673.208L698.784 676.773L750.181 679.038L742.185 890.24Z" fill="#E8CCC2"/>
<path d="M617.334 673.208L759.288 438.494L750.183 679.038L698.785 676.773L617.334 673.208Z" fill="#8EA8EA"/>
<path d="M416.731 475.675L436.103 234.443L573.993 479.316L416.731 475.675Z" fill="#E8CCC2"/>
<path d="M422.558 762.573L595.419 529.501L617.244 673.261L422.558 762.573Z" fill="#C6F9F5"/>
<path d="M401.416 723.644L416.733 475.675L573.996 479.316L401.416 723.644Z" fill="#C4B3F0"/>
<path d="M617.353 673.137L595.419 529.499L759.289 438.494L617.353 673.137Z" fill="#C6B4F0"/>
<path d="M592.464 529.957L598.302 529.025L620.565 674.685L618.804 675.765L614.741 677.401L614.334 673.691L592.464 529.957Z" fill="#3741B9"/>
<path d="M397.821 733.857L572.849 486.018L577.452 479.524L574.254 473.964L574.298 473.938L433.899 224.6L413.969 472.731L413.79 475.526L413.535 478.603L397.802 733.928L397.821 733.857ZM438.268 244.31L568.844 476.261L419.914 472.814L438.268 244.31ZM419.479 478.686L568.34 482.114L405.011 713.429L419.479 478.686Z" fill="#3741B9"/>
<path d="M610.954 679.414L613.228 678.396L613.994 678.072L616.152 677.06L616.281 677.285L744.771 900.639L762.252 439.406L762.494 433.406L753.59 438.326L597.68 524.84L593.429 527.184L592.316 528.666L591.12 530.315L590.395 531.333L413.388 770.036L610.999 679.389L610.954 679.414ZM739.667 879.861L622.605 676.37L747.134 681.819L739.667 879.861ZM747.383 675.935L622.483 670.463L755.92 449.831L747.383 675.935ZM598.655 531.091L751.029 446.507L619.059 664.614L598.655 531.091ZM606.302 621.006L613.971 671.508L431.768 755.081L593.531 536.99L606.328 621.051L606.302 621.006Z" fill="#3741B9"/>
<path d="M654.557 923.787L589.929 681.719L667.685 706.32L716.747 721.858L654.557 923.787Z" fill="#E8CCC2"/>
<path d="M589.928 681.72L787.576 491.876L716.747 721.859L667.685 706.32L589.928 681.72Z" fill="#8EA8EA"/>
<path d="M447.103 438.809L528.026 210.829L598.068 483.176L447.103 438.809Z" fill="#E8CCC2"/>
<path d="M378.743 717.444L605.82 537.215L589.827 681.746L378.743 717.444Z" fill="#C6F9F5"/>
<path d="M368.358 674.351L447.102 438.809L598.067 483.176L368.358 674.351Z" fill="#C4B3F0"/>
<path d="M589.964 681.657L605.82 537.216L787.575 491.877L589.964 681.657Z" fill="#C6B4F0"/>
<path d="M602.848 536.889L608.727 537.506L592.667 683.984L590.688 684.57L586.342 685.096L586.905 681.406L602.848 536.889Z" fill="#3741B9"/>
<path d="M362.254 683.283L595.232 489.352L601.354 484.275L599.698 478.074L599.748 478.06L528.434 200.749L445.193 435.249L444.299 437.901L443.259 440.807L362.218 683.346L362.254 683.283ZM527.571 220.922L593.881 478.888L450.913 436.873L527.571 220.922ZM448.98 442.432L591.884 484.41L374.467 665.418L448.98 442.432Z" fill="#3741B9"/>
<path d="M582.168 686.058L584.626 685.665L585.45 685.55L587.796 685.134L587.862 685.384L654.374 934.504L790.206 493.527L791.987 487.795L782.117 490.235L609.209 533.302L604.498 534.462L603.041 535.604L601.461 536.887L600.498 537.682L367.963 722.273L582.218 686.044L582.168 686.058ZM654.803 913.108L594.207 686.144L713.087 723.754L654.803 913.108ZM714.845 718.135L595.612 680.405L781.401 501.953L714.845 718.135ZM608.538 539.593L777.534 497.471L593.813 673.867L608.538 539.593ZM592.737 628.431L587.121 679.205L389.574 712.602L602.067 543.96L592.751 628.481L592.737 628.431Z" fill="#3741B9"/>
</g>
<defs>
<filter id="filter0_f_1232_451" x="0.510254" y="0.749023" width="1140.31" height="1142.98" filterUnits="userSpaceOnUse" color-interpolation-filters="sRGB">
<feFlood flood-opacity="0" result="BackgroundImageFix"/>
<feBlend mode="normal" in="SourceGraphic" in2="BackgroundImageFix" result="shape"/>
<feGaussianBlur stdDeviation="100" result="effect1_foregroundBlur_1232_451"/>
</filter>
</defs>
</svg>
